<?xml version="1.0" encoding="UTF-8"?>
<svg id="Layer_1" xmlns="http://www.w3.org/2000/svg" version="1.1" viewBox="0 0 826 512">
  <!-- Generator: Adobe Illustrator 29.3.1, SVG Export Plug-In . SVG Version: 2.1.0 Build 151)  -->
  <defs>
    <style>
      .st0 {
        stroke-width: 4px;
      }

      .st0, .st1 {
        fill: #fff;
      }

      .st0, .st2, .st3 {
        stroke: #000;
        stroke-miterlimit: 10;
      }

      .st2 {
        stroke-width: 6px;
      }

      .st2, .st3 {
        fill: #faa734;
      }

      .st3 {
        stroke-width: 5px;
      }
    </style>
  </defs>
  <g>
    <rect class="st1" x="47.4" y="20.7" width="360.7" height="433.9"/>
    <g id="paint_can">
      <path d="M81.4,4.5h-45.5c-7,0-12.7,5.7-12.7,12.7v7c0,7,5.7,12.7,12.7,12.7h3.1v73.4h-11.4l-1,3.3c-.1.4-12.6,42.5-18.6,92.5-8.2,67.8-1.3,117.1,20.4,146.7,3.2,4.4,6.7,8.3,10.6,11.7v79.6h-3.1c-7,0-12.7,5.7-12.7,12.7v7c0,7,5.7,12.7,12.7,12.7h379.9c7,0,12.7-5.7,12.7-12.7v-7c0-7-5.7-12.7-12.7-12.7h-5.9V36.8h5.9c7,0,12.7-5.7,12.7-12.7v-7c0-7-5.7-12.7-12.7-12.7h-154.3M261.5,4.5H81.4M35.9,347.2c-44.9-61-7.9-204.3-1.4-227.8h4.5v231.7c-1.1-1.3-2.1-2.6-3.1-3.9ZM53.6,444v-69.4c11.4,6,24.8,9.2,39.9,9.4,82.9,0,160.8-76.5,199-122.3,31.4-37.7,58-80.1,72.3-112.6,12.6-.8,23.7-8,30.5-18.6v313.6H53.6ZM375.5,104.4c-.5-2.5-2.9-4.1-5.4-3.6-2.5.5-4.1,2.9-3.6,5.4.8,3.9,0,9.8-2,17.1-5.9-1.9-10.1-7.5-10.1-14s6.6-14.7,14.7-14.7,14.7,6.6,14.7,14.7-4.1,11.8-9.8,13.9c1.9-7.7,2.5-14.1,1.5-18.8h0ZM372.5,128.3c9-1.6,15.8-9.5,15.8-19s-8.6-19.3-19.3-19.3-19.3,8.6-19.3,19.3,5.6,15.9,13.4,18.4c-.5,1.4-1,2.9-1.5,4.4-9.6-3.1-16.5-12.1-16.5-22.7s10.7-23.9,23.9-23.9,23.9,10.7,23.9,23.9-9.7,22.8-22,23.8c.6-1.7,1.1-3.3,1.5-4.8h0ZM261.5,36.8h133.8v43.4h0c-7.3-11.3-19.4-18.7-33-18.7-22.3,0-40.3,19.6-40.3,43.8s14.3,39.3,33.1,43c-13.7,30-38.4,69.9-69.6,107.4-37.4,44.9-111.9,120-191.8,119-15.6-.2-29-3.8-40-10.8V36.8h27.8"/>
    </g>
    <path class="st2" d="M81.4,7.6"/>
    <path class="st2" d="M81.4,9.5v148.3c0,14.1,11.4,25.6,25.6,25.6s14.5-3.4,19.2-8.7v106.8c0,14.1,11.4,25.6,25.6,25.6s25.6-11.4,25.6-25.6v-51.6c4.2,2.9,9.2,4.7,14.7,4.7,14.1,0,25.6-11.4,25.6-25.6v-33.5c4.6,4.8,11.2,7.8,18.4,7.8,14.1,0,25.6-11.4,25.6-25.6V9.5"/>
  </g>
  <g>
    <g id="brush_paint_painting_pallette_mixer_art_artist">
      <g>
        <path d="M439.9,476l21.8-2-5-42.1-21.8,2,5,42.1Z"/>
        <path d="M467.6,469.5c34.9-1,86.1-3.5,147.6-10,97-10.3,206.2-29.2,205.4-36.5-.8-7.9-132.4-.9-209.4,3.2-62,3.3-113.1,7.2-147.6,10"/>
        <path d="M375.4,507c.7.2,1.5.4,1.5.4s1.9.5,4,.8c39.9,5.8,53-28.5,53-28.5l-5.8-48.5c-9.3-7.3-29.3-20.8-54.6-19-3.7.3-7.1.8-10.4,1.6-2.2,2.9-5.8,8.3-8.5,15.6-14.5,39,17.9,76.6,20.9,77.5Z"/>
      </g>
    </g>
    <path class="st3" d="M363.6,416.3c-4.2.9-40.6,9.3-52.7,40.7-4.5,11.6-4.1,22.4-3.1,29.5,38.3-23.7,43.6,10.3,69.4,18.5,5.1-6,10.8-14.9,9.2-24.8-1.6-9.8-9.4-13.9-15.7-23.9-4.9-7.8-9.6-20.2-7.1-40Z"/>
    <rect class="st0" x="430.7" y="427.6" width="9.6" height="55.8" rx="3.6" ry="3.6" transform="translate(-48.3 51.7) rotate(-6.4)"/>
    <rect class="st0" x="456.1" y="428.9" width="9.8" height="47.4" rx="3.6" ry="3.6" transform="translate(-47.8 54.5) rotate(-6.4)"/>
  </g>
  <path class="st3" d="M289.3,491.2c-7.7.2-15.7.6-16.6,3.8-.9,3.2,5.5,7.9,10.2,10.2,12.6,6.1,25.7.7,29.4-.8,4.1-1.7,11.2-4.6,10.9-7.5-.5-5-22.2-6-33.9-5.6Z"/>
  <path class="st3" d="M262.4,500.1c-.7,0-4.6-.1-5,1.9-.3,1.6,1.6,3.9,3,5.1,2.7,2.2,7.7,1.8,8.8-.4.8-1.5-.5-3.5-.7-3.8-1.8-2.8-5.4-2.8-6.1-2.8Z"/>
</svg>